# xmcd CD database file
#
# Track frame offsets:
#	150
#	12072
#	24642
#	39182
#	50922
#	64677
#	79731
#	98015
#	127674
#	145293
#	177255
#	192598
#	229907
#	290295
#	311160
#
# Disc length: 4622 seconds
#
# Revision: 0
# Processed by: cddbd v1.5.2PL0 Copyright (c) Steve Scherf et al.
# Submitted via: CDex 1.51
#
DISCID=c9120c0f
DTITLE=Miles Davis - Milestones
DYEAR=2005
DGENRE=Jazz
TTITLE0=Milestones
TTITLE1=Half Nelson
TTITLE2=Jeru
TTITLE3=Budo
TTITLE4=Boplicity
TTITLE5=Moon Dreams
TTITLE6=Conception
TTITLE7=My Old Flame
TTITLE8=Tune Up
TTITLE9=Round Midnight
TTITLE10=Old Devil Moon
TTITLE11=Blue `n` Boogie
TTITLE12=Walkin`
TTITLE13=But Not For Me
TTITLE14=The Man I Love
EXTD=YEAR: 2005
EXTT0=
EXTT1=
EXTT2=
EXTT3=
EXTT4=
EXTT5=
EXTT6=
EXTT7=
EXTT8=
EXTT9=
EXTT10=
EXTT11=
EXTT12=
EXTT13=
EXTT14=
PLAYORDER=
